<svg viewBox="0 0 129 209" 
    xmlns="http://www.w3.org/2000/svg" fill-rule="evenodd" clip-rule="evenodd" stroke-linejoin="round" stroke-miterlimit="2">
    <path d="M50.847 6.812l-32.289 8.652 8.651 32.289 32.29-8.652-8.652-32.289zM85.433 53.726L12.199 73.349l15.334 57.227 73.234-19.623-15.334-57.227z" fill="#4dbab4"/>
    <path d="M90.714 67.112L14.25 87.6c-4.465 1.196-8.995-1.419-10.191-5.884L.966 70.174c-4.013-14.977 4.839-30.308 19.815-34.321l38.335-10.271c14.976-4.013 30.308 4.838 34.321 19.815l3.092 11.541c1.247 4.379-1.419 8.995-5.815 10.174zM119.112 191.231L54.74 208.479c-6.939 1.86-14.082-2.264-15.941-9.203L21.55 134.904c-1.859-6.939 2.265-14.082 9.204-15.941l64.372-17.248c6.938-1.859 14.081 2.264 15.941 9.203l17.248 64.372c1.859 6.939-2.265 14.082-9.203 15.941z" fill="#7ad0cb" fill-rule="nonzero"/>
    <path d="M54.705 18.738l-33.457 8.964c-2.954.792-5.934-.987-6.707-3.872l-2.136-7.969c-.791-2.954.987-5.935 3.873-6.708L49.735.189c2.954-.792 5.934.987 6.707 3.872l2.135 7.969c.842 2.867-.918 5.916-3.872 6.708z" fill="#2175aa" fill-rule="nonzero"/>
    <path d="M59.166 25.495l-3.023.809-1.988-7.419.55-.147c2.954-.792 4.645-3.822 3.872-6.708l-2.135-7.969C55.65 1.107 52.62-.585 49.735.189l-17.244 4.62 52.426 195.658 34.213-9.167c6.939-1.86 11.063-9.002 9.203-15.941l-17.248-64.372c-1.583-5.908-7.031-9.75-12.895-9.652l-9.056-33.8 1.58-.423c4.465-1.197 7.08-5.727 5.884-10.192l-3.093-11.542C89.492 30.402 74.074 21.5 59.166 25.495z" fill="#7ad0cb" fill-rule="nonzero"/>
</svg>
