<?xml version="1.0" encoding="UTF-8" standalone="no"?><!DOCTYPE svg PUBLIC "-//W3C//DTD SVG 1.1//EN" "http://www.w3.org/Graphics/SVG/1.1/DTD/svg11.dtd"><svg width="100%" height="100%" viewBox="0 0 129 209" version="1.1" xmlns="http://www.w3.org/2000/svg" xmlns:xlink="http://www.w3.org/1999/xlink" xml:space="preserve" xmlns:serif="http://www.serif.com/" style="fill-rule:evenodd;clip-rule:evenodd;stroke-linejoin:round;stroke-miterlimit:2;"><g><g><path d="M50.847,6.812l-32.289,8.652l8.651,32.289l32.29,-8.652l-8.652,-32.289Z" style="fill:#4dbab4;"/><path d="M85.433,53.726l-73.234,19.623l15.334,57.227l73.234,-19.623l-15.334,-57.227Z" style="fill:#4dbab4;"/><path d="M90.714,67.112l-76.464,20.488c-4.465,1.196 -8.995,-1.419 -10.191,-5.884l-3.093,-11.542c-4.013,-14.977 4.839,-30.308 19.815,-34.321l38.335,-10.271c14.976,-4.013 30.308,4.838 34.321,19.815l3.092,11.541c1.247,4.379 -1.419,8.995 -5.815,10.174Z" style="fill:#7ad0cb;fill-rule:nonzero;"/><path d="M119.112,191.231l-64.372,17.248c-6.939,1.86 -14.082,-2.264 -15.941,-9.203l-17.249,-64.372c-1.859,-6.939 2.265,-14.082 9.204,-15.941l64.372,-17.248c6.938,-1.859 14.081,2.264 15.941,9.203l17.248,64.372c1.859,6.939 -2.265,14.082 -9.203,15.941Z" style="fill:#7ad0cb;fill-rule:nonzero;"/><path d="M54.705,18.738l-33.457,8.964c-2.954,0.792 -5.934,-0.987 -6.707,-3.872l-2.136,-7.969c-0.791,-2.954 0.987,-5.935 3.873,-6.708l33.457,-8.964c2.954,-0.792 5.934,0.987 6.707,3.872l2.135,7.969c0.842,2.867 -0.918,5.916 -3.872,6.708Z" style="fill:#2175aa;fill-rule:nonzero;"/></g><path d="M59.166,25.495l-3.023,0.809l-1.988,-7.419l0.55,-0.147c2.954,-0.792 4.645,-3.822 3.872,-6.708l-2.135,-7.969c-0.792,-2.954 -3.822,-4.646 -6.707,-3.872l-17.244,4.62l52.426,195.658l34.213,-9.167c6.939,-1.86 11.063,-9.002 9.203,-15.941l-17.248,-64.372c-1.583,-5.908 -7.031,-9.75 -12.895,-9.652l-9.056,-33.8l1.58,-0.423c4.465,-1.197 7.08,-5.727 5.884,-10.192l-3.093,-11.542c-4.013,-14.976 -19.431,-23.878 -34.339,-19.883Z" style="fill:#7ad0cb;fill-rule:nonzero;"/></g></svg>