<svg viewBox="0 0 59 65" 
    xmlns="http://www.w3.org/2000/svg" fill-rule="evenodd" clip-rule="evenodd" stroke-linejoin="round" stroke-miterlimit="2">
    <path d="M42.984 10.294l-8.217-3.365-4.48 10.941 8.217 3.365 4.48-10.941z" fill="#674272"/>
    <path d="M46.515 4.428L36.387.281c-1.912-.783-4.079.125-4.862 2.037l-.54 1.318c-.783 1.911.126 4.079 2.037 4.862l10.128 4.147c1.912.783 4.079-.125 4.862-2.037l.54-1.318c.783-1.911-.126-4.079-2.037-4.862z" fill="#85688e" fill-rule="nonzero"/>
    <path d="M56.319 26.621l-1.349-3.219-5.693 2.385 1.349 3.219 5.693-2.385z" fill="#674272"/>
    <path d="M58.392 26.044l-1.544-3.685c-.285-.681-1.098-1.014-1.779-.729l-.465.195c-.681.286-1.014 1.098-.729 1.78l1.544 3.685c.286.681 1.099 1.014 1.78.728l.464-.194c.704-.277 1.037-1.089.729-1.78z" fill="#85688e" fill-rule="nonzero"/>
    <path d="M37.161 12.861c13.763 5.636 20.361 21.385 14.725 35.147-5.635 13.763-21.384 20.361-35.147 14.725C2.976 57.098-3.622 41.349 2.014 27.586 7.65 13.823 23.399 7.225 37.161 12.861z" fill="#85688e"/>
    <path d="M35.425 17.101c11.422 4.678 16.899 17.749 12.221 29.171-4.677 11.422-17.748 16.898-29.171 12.221C7.053 53.816 1.577 40.745 6.254 29.322 10.932 17.9 24.003 12.424 35.425 17.101z" fill="#c2b3c7"/>
    <path d="M30.994 39.325c-.909 2.219-3.439 3.261-5.636 2.361-2.197-.9-3.261-3.439-2.361-5.636.701-1.714 6.493-9.091 9.121-12.376.37-.464 1.117-.158 1.054.432-.452 4.176-1.476 13.505-2.178 15.219z" fill="#674272" fill-rule="nonzero"/>
    <path d="M27.688 35.996c.994.407 1.471 1.545 1.064 2.539-.407.994-1.545 1.471-2.54 1.064-.994-.407-1.471-1.545-1.063-2.54.407-.994 1.545-1.471 2.539-1.063z" fill="#85688e"/>
    <path d="M55.307 27.064l.103.248c.286.681 1.099 1.014 1.78.728l.464-.194c.682-.286 1.015-1.098.729-1.78l-1.544-3.685c-.285-.681-1.098-1.014-1.779-.729l-.465.195c-.681.285-1.014 1.098-.729 1.78l.104.247-3.189 1.337c-2.197-4.158-5.479-7.734-9.633-10.307l1.071-2.615.944.387c1.912.783 4.079-.125 4.862-2.037l.54-1.318c.783-1.911-.126-4.079-2.037-4.862l-5.295-2.168L16.51 62.665l.22.09c13.775 5.641 29.506-.949 35.147-14.725 2.672-6.525 2.606-13.504.302-19.656l3.128-1.31z" fill="#a48eaa" fill-rule="nonzero"/>
</svg>
