<?xml version="1.0" encoding="UTF-8" standalone="no"?><!DOCTYPE svg PUBLIC "-//W3C//DTD SVG 1.1//EN" "http://www.w3.org/Graphics/SVG/1.1/DTD/svg11.dtd"><svg width="100%" height="100%" viewBox="0 0 59 65" version="1.1" xmlns="http://www.w3.org/2000/svg" xmlns:xlink="http://www.w3.org/1999/xlink" xml:space="preserve" xmlns:serif="http://www.serif.com/" style="fill-rule:evenodd;clip-rule:evenodd;stroke-linejoin:round;stroke-miterlimit:2;"><g><g><g><path d="M42.984,10.294l-8.217,-3.365l-4.48,10.941l8.217,3.365l4.48,-10.941Z" style="fill:#674272;"/><path d="M46.515,4.428l-10.128,-4.147c-1.912,-0.783 -4.079,0.125 -4.862,2.037l-0.54,1.318c-0.783,1.911 0.126,4.079 2.037,4.862l10.128,4.147c1.912,0.783 4.079,-0.125 4.862,-2.037l0.54,-1.318c0.783,-1.911 -0.126,-4.079 -2.037,-4.862Z" style="fill:#85688e;fill-rule:nonzero;"/></g><g><path d="M56.319,26.621l-1.349,-3.219l-5.693,2.385l1.349,3.219l5.693,-2.385Z" style="fill:#674272;"/><path d="M58.392,26.044l-1.544,-3.685c-0.285,-0.681 -1.098,-1.014 -1.779,-0.729l-0.465,0.195c-0.681,0.286 -1.014,1.098 -0.729,1.78l1.544,3.685c0.286,0.681 1.099,1.014 1.78,0.728l0.464,-0.194c0.704,-0.277 1.037,-1.089 0.729,-1.78Z" style="fill:#85688e;fill-rule:nonzero;"/></g><path d="M37.161,12.861c13.763,5.636 20.361,21.385 14.725,35.147c-5.635,13.763 -21.384,20.361 -35.147,14.725c-13.763,-5.635 -20.361,-21.384 -14.725,-35.147c5.636,-13.763 21.385,-20.361 35.147,-14.725Z" style="fill:#85688e;"/><path d="M35.425,17.101c11.422,4.678 16.899,17.749 12.221,29.171c-4.677,11.422 -17.748,16.898 -29.171,12.221c-11.422,-4.677 -16.898,-17.748 -12.221,-29.171c4.678,-11.422 17.749,-16.898 29.171,-12.221Z" style="fill:#c2b3c7;"/><path d="M30.994,39.325c-0.909,2.219 -3.439,3.261 -5.636,2.361c-2.197,-0.9 -3.261,-3.439 -2.361,-5.636c0.701,-1.714 6.493,-9.091 9.121,-12.376c0.37,-0.464 1.117,-0.158 1.054,0.432c-0.452,4.176 -1.476,13.505 -2.178,15.219Z" style="fill:#674272;fill-rule:nonzero;"/><path d="M27.688,35.996c0.994,0.407 1.471,1.545 1.064,2.539c-0.407,0.994 -1.545,1.471 -2.54,1.064c-0.994,-0.407 -1.471,-1.545 -1.063,-2.54c0.407,-0.994 1.545,-1.471 2.539,-1.063Z" style="fill:#85688e;"/></g><path d="M55.307,27.064l0.103,0.248c0.286,0.681 1.099,1.014 1.78,0.728l0.464,-0.194c0.682,-0.286 1.015,-1.098 0.729,-1.78l-1.544,-3.685c-0.285,-0.681 -1.098,-1.014 -1.779,-0.729l-0.465,0.195c-0.681,0.285 -1.014,1.098 -0.729,1.78l0.104,0.247l-3.189,1.337c-2.197,-4.158 -5.479,-7.734 -9.633,-10.307l1.071,-2.615l0.944,0.387c1.912,0.783 4.079,-0.125 4.862,-2.037l0.54,-1.318c0.783,-1.911 -0.126,-4.079 -2.037,-4.862l-5.295,-2.168l-24.723,60.374c0.066,0.027 0.154,0.063 0.22,0.09c13.775,5.641 29.506,-0.949 35.147,-14.725c2.672,-6.525 2.606,-13.504 0.302,-19.656l3.128,-1.31Z" style="fill:#a48eaa;fill-rule:nonzero;"/></g></svg>