<svg viewBox="0 0 126 83" xmlns="http://www.w3.org/2000/svg" fill-rule="evenodd" clip-rule="evenodd" stroke-linejoin="round" stroke-miterlimit="2">
  <g fill-rule="nonzero">
    <path d="M115.693 61.945L5.715 34.805C1.666 33.806-.77 29.724.221 25.71c.999-4.048 5.081-6.485 9.094-5.494l109.978 27.14c4.049.999 6.485 5.081 5.495 9.095-1 4.048-5.046 6.493-9.095 5.494z" fill="#d3e3ee"/>
    <path d="M11.126 44.99l-1.117-.276c-2.618-.646-4.222-3.3-3.576-5.918l5.375-21.779c.646-2.618 3.3-4.221 5.918-3.575l1.117.275c2.618.646 4.221 3.301 3.575 5.919l-5.374 21.779c-.646 2.617-3.301 4.221-5.918 3.575z" fill="#7aaccc"/>
    <path d="M18.436 63.383l-2.234-.552c-5.235-1.292-8.443-6.601-7.151-11.836L19.8 7.437c1.292-5.236 6.601-8.443 11.837-7.151l2.233.551c5.236 1.292 8.443 6.601 7.151 11.837L30.272 56.232c-1.292 5.235-6.601 8.443-11.836 7.151z" fill="#314967"/>
    <g>
      <path d="M113.883 37.171l1.116.276c2.618.646 4.222 3.3 3.576 5.918L113.2 65.144c-.646 2.618-3.3 4.221-5.918 3.575l-1.117-.275c-2.618-.646-4.221-3.301-3.575-5.919l5.374-21.779c.646-2.617 3.301-4.221 5.919-3.575z" fill="#7aaccc"/>
      <path d="M106.572 18.778l2.234.552c5.236 1.292 8.443 6.601 7.151 11.836l-10.749 43.558c-1.292 5.236-6.601 8.443-11.837 7.151l-2.233-.551c-5.236-1.292-8.443-6.601-7.151-11.837l10.749-43.558c1.292-5.235 6.601-8.443 11.836-7.151z" fill="#314967"/>
    </g>
  </g>
</svg>
